<svg xmlns="http://www.w3.org/2000/svg" viewBox="0 0 222.39 70.18"><defs><style>.cls-1{fill:#fff;}.cls-2{fill:#1d1d1b;}</style></defs><g id="Layer_2" data-name="Layer 2"><g id="Layer_7" data-name="Layer 7"><path class="cls-1" d="M0,48.79v-.12c0-12.05,9.45-21.5,22.27-21.5,7.27,0,12.41,2.24,16.78,6l-6.73,8.1a14.62,14.62,0,0,0-10-3.9c-6,0-10.57,5-10.57,11.34v.12c0,6.68,4.66,11.46,11.22,11.46A11.7,11.7,0,0,0,29.6,58.6v-5H21.45V45.19h19V63.8a28,28,0,0,1-18,6.38C9.63,70.18,0,61.32,0,48.79Z"/><path class="cls-1" d="M41.83,28H61.39c6.32,0,10.69,1.66,13.47,4.49,2.42,2.37,3.66,5.56,3.66,9.63v.12c0,6.33-3.37,10.52-8.51,12.71l9.87,14.41H66.65L58.31,56.83h-5V69.35H41.83Zm19,19.86c3.9,0,6.15-1.89,6.15-4.91v-.12c0-3.25-2.36-4.9-6.2-4.9H53.29v9.93Z"/><path class="cls-1" d="M79.29,28h33.26v9.75H90.63V44h19.85v9H90.63V59.6h22.22v9.75H79.29Z"/><path class="cls-1" d="M113.68,28h33.26v9.75H125V44h19.85v9H125V59.6h22.21v9.75H113.68Z"/><path class="cls-1" d="M148.06,28h10.69l17,21.86V28h11.34V69.35h-10L159.4,46.66V69.35H148.06Z"/><path class="cls-1" d="M186.29,63.21l6.38-7.63a21.3,21.3,0,0,0,13.41,5c3.07,0,4.73-1.06,4.73-2.84v-.12c0-1.71-1.36-2.65-7-4-8.8-2-15.59-4.49-15.59-13v-.12c0-7.68,6.08-13.23,16-13.23,7,0,12.52,1.89,17,5.49l-5.73,8.09A20.78,20.78,0,0,0,204,36.8c-2.77,0-4.13,1.18-4.13,2.66v.11c0,1.9,1.42,2.72,7.15,4,9.51,2.07,15.42,5.14,15.42,12.88v.12c0,8.45-6.68,13.47-16.72,13.47C198.34,70.06,191.37,67.76,186.29,63.21Z"/><path class="cls-2" d="M39.88,36.37a4.83,4.83,0,0,1-1.92-.6,2.75,2.75,0,0,1-1-1.09,3.62,3.62,0,0,1-.38-1.46,14.6,14.6,0,0,1,0-1.73,19.27,19.27,0,0,1,.68-3.38c.34-1.2.74-2.42,1.19-3.67s.93-2.48,1.46-3.74,1-2.46,1.51-3.62A6.55,6.55,0,0,0,42,14.29a9.41,9.41,0,0,0-.5-2.68A17.43,17.43,0,0,0,40.36,9L39.05,6.58a2,2,0,0,1-.28-1.35c.11-.23.54-.44,1.31-.63q4.08-.87,8.59-1.72t8.86-1.51q4.34-.65,8.19-1A60.49,60.49,0,0,1,72.4,0a3.34,3.34,0,0,1,2.49.75,9.49,9.49,0,0,1,1.67,1.9q.39.6.06.93a2,2,0,0,1-1.45.26q-5.07,0-10.2.47l-10.24.95a1.45,1.45,0,0,0-1.22.8L51.11,10q-1.44,2.36-3,5.13t-3.07,5.74q-1.53,3-2.67,5.76a37.1,37.1,0,0,0-1.75,5.21,10.33,10.33,0,0,0-.31,4.08c0,.32.06.47,0,.46A2.1,2.1,0,0,0,39.88,36.37ZM41.23,7.18q.68,1.5,1.26,2.91c.4.93.8,1.89,1.19,2.87.4-.66.76-1.28,1.07-1.84s.64-1.12,1-1.65l1-1.6c.33-.54.7-1.12,1.09-1.72-.63.08-1.21.16-1.74.25s-1.05.18-1.56.26l-1.55.26C42.4,7,41.83,7.1,41.23,7.18Z"/><path class="cls-2" d="M62.5,21.71a14.3,14.3,0,0,0-1.31.62,10.17,10.17,0,0,1-1.31.57,4.16,4.16,0,0,0-1,.51,2.57,2.57,0,0,0-.77.95A13.32,13.32,0,0,1,54.34,29,4.65,4.65,0,0,1,52,30a4.06,4.06,0,0,1-2.52-.71,5.94,5.94,0,0,1-2.41-2.38,5.21,5.21,0,0,1,0-3.33,18.41,18.41,0,0,1,1.72-4.49,19.58,19.58,0,0,1,2.75-3.75,3.56,3.56,0,0,1,1.13-.79,5.75,5.75,0,0,1,1.45-.43A7,7,0,0,1,55.62,14,4.33,4.33,0,0,1,57,14.3a4.21,4.21,0,0,1,1.94,1.41,4,4,0,0,1,.71,1.88,7.19,7.19,0,0,1-.08,2.16c-.13.75-.27,1.5-.43,2.24a6.23,6.23,0,0,0,1.54-.64l1.47-.79Zm-12.12,6.5a6.37,6.37,0,0,0,3-1.9,20.81,20.81,0,0,0,2.14-2.9,3.24,3.24,0,0,1-2.18-.61,3.94,3.94,0,0,1-1-1.45,28.49,28.49,0,0,0-1.29,3.19A13,13,0,0,0,50.38,28.21Zm6.06-6.1a9.77,9.77,0,0,0,.47-1.05c.19-.46.36-1,.52-1.49A15,15,0,0,0,57.8,18a4.81,4.81,0,0,0,.06-1.39,1.37,1.37,0,0,0-.45-.91,1.23,1.23,0,0,0-1.13-.12q.07.29.18.6a1,1,0,0,1,0,.55,2.83,2.83,0,0,1-.36.65.81.81,0,0,1-.48.38,2,2,0,0,0-.91.34,2.91,2.91,0,0,0-.59.57,4.78,4.78,0,0,0-.44.69,4.36,4.36,0,0,1-.43.7,9.82,9.82,0,0,0,.57,1.07,2,2,0,0,0,.58.61,1.81,1.81,0,0,0,.79.3A8,8,0,0,0,56.44,22.11Z"/><path class="cls-2" d="M85.67,22.15c-.85.79-1.7,1.56-2.56,2.31l-2.59,2.28a1.69,1.69,0,0,1-1.37.38,4.13,4.13,0,0,1-1.48-.66,1.58,1.58,0,0,1-.88-1.07,9,9,0,0,1-.08-1.14c0-.69.08-1.36.16-2s.15-1.34.2-2c.08-1.11-.06-1.69-.41-1.75a3.29,3.29,0,0,0-1.81.8q-2.53,1.86-4.83,3.9a29.07,29.07,0,0,0-4.12,4.53c-.29.37-.52.66-.69.85a.92.92,0,0,1-.56.34,1.48,1.48,0,0,1-.75-.16c-.3-.13-.72-.34-1.25-.63l-.57-.28a2.77,2.77,0,0,1-.53-.32,1.62,1.62,0,0,1-1-1.5,20.45,20.45,0,0,1,1.55-6.28A13.35,13.35,0,0,1,66,14.58a1.6,1.6,0,0,1,1.17-.49,3.11,3.11,0,0,1,1.21.29,7.54,7.54,0,0,1,1.15.68c.37.26.7.49,1,.67a13.41,13.41,0,0,0-1.81,2c-.59.78-1.14,1.59-1.66,2.42s-1,1.65-1.39,2.45-.73,1.49-1,2c.74-.66,1.56-1.37,2.46-2.14s1.81-1.49,2.73-2.19,1.82-1.35,2.7-1.94a19.82,19.82,0,0,1,2.33-1.41,2.13,2.13,0,0,1,1.35-.18,4.84,4.84,0,0,1,1.43.57A3.24,3.24,0,0,1,79.41,20c0,.9-.1,1.76-.2,2.59a5.53,5.53,0,0,0,.2,2.4c.92-.69,1.81-1.39,2.65-2.1s1.69-1.45,2.54-2.22Z"/><path class="cls-2" d="M94.77,21.79c-.6.77-1.24,1.54-1.9,2.32s-1.3,1.5-1.92,2.18-1.19,1.26-1.7,1.78-.92.9-1.21,1.17a2.48,2.48,0,0,1-1.09.59,2.85,2.85,0,0,1-1.23.06,3.94,3.94,0,0,1-1.22-.42,3.49,3.49,0,0,1-1.09-.87,2.32,2.32,0,0,1-.44-.77,7,7,0,0,1-.24-.93,5.84,5.84,0,0,1,.2-2.36,16.1,16.1,0,0,1,1-2.63,28.25,28.25,0,0,1,1.33-2.5,14.89,14.89,0,0,1,1.31-1.9,2.1,2.1,0,0,1,1.78-.71,2.39,2.39,0,0,1,1.78,1,1.12,1.12,0,0,1,.12.95A16,16,0,0,1,89.31,21c-.37.74-.75,1.48-1.15,2.22s-.77,1.48-1.11,2.21a10.76,10.76,0,0,0-.75,2.22,8.86,8.86,0,0,0,2-1.19,17.39,17.39,0,0,0,1.88-1.7c.61-.63,1.2-1.3,1.78-2l1.71-2Zm-6.06-7.72a9.43,9.43,0,0,1,.12-1.39,5.26,5.26,0,0,1,.42-1.44,2.36,2.36,0,0,1,.81-1,1.33,1.33,0,0,1,1.31,0,6.8,6.8,0,0,1,1.19.61,1.5,1.5,0,0,1,.57.63,1.21,1.21,0,0,1,0,.8,6,6,0,0,1-.49,1.08c-.14.22-.24.38-.3.5a3,3,0,0,0-.18.36,2.72,2.72,0,0,1-.2.37c-.08.13-.17.31-.27.52-.22.42-.4.66-.56.71a1.77,1.77,0,0,1-1-.28,8.61,8.61,0,0,1-1-.43A1,1,0,0,1,88.71,14.07Z"/><path class="cls-2" d="M92.91,27.18a2.21,2.21,0,0,1-.49-.78,3.31,3.31,0,0,1-.22-.89,7.1,7.1,0,0,1,.38-2.69,16.12,16.12,0,0,1,1.18-2.71,15.71,15.71,0,0,1,1.69-2.48,16.62,16.62,0,0,1,1.86-1.94,5.43,5.43,0,0,1,2-1.17,4.22,4.22,0,0,1,1.92-.14,4.51,4.51,0,0,1,1.78.74,9.06,9.06,0,0,1,1.65,1.44,1.82,1.82,0,0,1,.57,1.11,3,3,0,0,1-.73,1.35c-.37-.27-.7-.52-1-.77s-.58-.53-.87-.82a10.55,10.55,0,0,0-2.34,1.79,15.52,15.52,0,0,0-1.94,2.37,25.43,25.43,0,0,0-1.59,2.74,28.12,28.12,0,0,0-1.22,2.81,27.8,27.8,0,0,0,4.14-1.37,30.92,30.92,0,0,0,4.25-2.16,36.94,36.94,0,0,0,4-2.81,25.72,25.72,0,0,0,3.49-3.33,19.69,19.69,0,0,0,2.57-3.7,11.45,11.45,0,0,0,1.31-3.94,1.18,1.18,0,0,1,.42-.85c.22-.17.66-.09,1.32.26a4.92,4.92,0,0,1,1.84,2.33,4,4,0,0,1-.06,2.42,14.36,14.36,0,0,1-2.53,4.77,24.3,24.3,0,0,1-4,4,29.36,29.36,0,0,1-4.81,3.09,37.86,37.86,0,0,1-4.89,2.1c-1.14.37-2.32.7-3.55,1a10.25,10.25,0,0,1-3.54.24,4.52,4.52,0,0,1-1.25-.74A17.26,17.26,0,0,1,92.91,27.18Z"/></g></g></svg>